<?xml version="1.0" encoding="iso-8859-1"?>
<!-- Generator: Adobe Illustrator 19.0.0, SVG Export Plug-In . SVG Version: 6.00 Build 0)  -->
<svg version="1.1" id="Layer_1" xmlns="http://www.w3.org/2000/svg" xmlns:xlink="http://www.w3.org/1999/xlink" x="0px" y="0px"
	 viewBox="0 0 503.608 503.608" style="enable-background:new 0 0 503.608 503.608;" xml:space="preserve">
<g>
	<g>
		<g>
			<path d="M501.149,196.104l-59.35-59.35c-1.427-1.427-3.341-2.191-5.338-2.342V67.148c0-2.224-0.89-4.356-2.459-5.934
				L375.247,2.459C373.669,0.89,371.537,0,369.313,0H109.116c-4.642,0-8.393,3.76-8.393,8.393v486.82
				c0,4.633,3.752,8.393,8.393,8.393h92.328h226.623c4.642,0,8.393-3.76,8.393-8.393V272.535l64.68-64.554
				c1.578-1.57,2.468-3.701,2.468-5.934C503.608,199.823,502.719,197.682,501.149,196.104z M377.707,28.655l30.099,30.099h-30.099
				V28.655z M151.722,187.87c-1.301-3.139-0.579-6.748,1.821-9.149l23.779-23.779c-0.621-1.167-1.058-2.443-1.058-3.861V92.328
				c0-4.633,3.752-8.393,8.393-8.393h33.574c4.642,0,8.393,3.76,8.393,8.393v13.312L254.264,78c3.273-3.273,8.586-3.273,11.868,0
				l100.721,100.721c2.401,2.401,3.122,6.01,1.821,9.149c-1.301,3.139-4.365,5.179-7.756,5.179h-16.787v29.671l-2.703,2.711
				c-0.168,0.143-0.369,0.193-0.529,0.352c-0.159,0.151-0.21,0.361-0.353,0.529l-13.203,13.228v-46.491H193.051v117.508h33.574
				V268.59c0-4.633,3.752-8.393,8.393-8.393h42.202c4.642,0,8.393,3.76,8.393,8.393v12.766l-3.181,3.19
				c-0.285,0.218-0.621,0.327-0.881,0.588c-0.269,0.26-0.369,0.604-0.596,0.89l-12.129,12.154v-21.193h-25.415v33.574h13.06
				l-3.542,3.55c-0.344,0.252-0.739,0.394-1.049,0.705c-0.319,0.311-0.453,0.714-0.705,1.058l-11.457,11.474h-4.7h-50.361
				c-4.642,0-8.393-3.76-8.393-8.393V193.049h-16.787C156.086,193.049,153.014,191.01,151.722,187.87z M422.15,263.101
				c0,0-0.008,0-0.008,0.008L201.453,483.353l-46.903-46.894l14.512-14.546l17.525,17.534c1.645,1.637,3.785,2.459,5.934,2.459
				c2.149,0,4.297-0.823,5.934-2.459c3.282-3.273,3.282-8.595,0-11.868l-17.534-17.542l17.786-17.828l29.427,29.427
				c1.645,1.637,3.794,2.459,5.943,2.459c2.14,0,4.289-0.823,5.934-2.459c3.273-3.282,3.273-8.586,0-11.868l-29.444-29.444
				l17.786-17.819l17.593,17.584c1.637,1.645,3.785,2.459,5.934,2.459c2.14,0,4.289-0.814,5.934-2.459
				c3.273-3.273,3.273-8.586,0-11.868l-17.601-17.601l17.786-17.819l29.486,29.486c1.637,1.645,3.785,2.459,5.934,2.459
				c2.149,0,4.297-0.814,5.934-2.459c3.273-3.273,3.273-8.586,0-11.868l-29.503-29.503l17.794-17.819l17.651,17.643
				c1.637,1.637,3.785,2.459,5.934,2.459s4.297-0.823,5.934-2.459c3.282-3.282,3.282-8.595,0-11.868l-17.668-17.66l17.794-17.828
				l29.545,29.553c1.637,1.637,3.785,2.459,5.934,2.459c2.149,0,4.297-0.823,5.934-2.459c3.282-3.282,3.282-8.586,0-11.868
				l-29.553-29.562l12.54-12.565h-0.008l5.254-5.254l17.702,17.702c1.645,1.645,3.785,2.459,5.934,2.459
				c2.149,0,4.297-0.814,5.934-2.459c3.282-3.273,3.282-8.586,0-11.868l-17.719-17.719l17.794-17.819l29.604,29.604
				c1.645,1.637,3.794,2.459,5.934,2.459c2.149,0,4.297-0.823,5.934-2.459c3.282-3.282,3.282-8.595,0-11.868l-29.62-29.62
				l17.794-17.828l17.76,17.769c1.645,1.637,3.794,2.459,5.943,2.459c2.14,0,4.289-0.823,5.934-2.459
				c3.273-3.282,3.273-8.586,0-11.868l-17.786-17.777l15.931-15.964l1.863-1.863l47.465,47.473L422.15,263.101z"/>
			<polygon points="209.836,100.723 193.049,100.723 193.049,134.49 209.836,118.995 			"/>
			<polygon points="335.738,176.264 340.656,176.264 260.197,95.804 179.737,176.264 184.656,176.264 			"/>
			<rect x="0" y="58.756" width="67.148" height="16.787"/>
			<path d="M33.574,0.002C15.058,0.002,0,15.06,0,33.575v8.393h67.148v-8.393C67.148,15.06,52.09,0.002,33.574,0.002z"/>
			<path d="M0,428.067c0,1.007,0.176,2.006,0.529,2.946l25.18,67.148c1.234,3.273,4.365,5.447,7.865,5.447s6.631-2.174,7.865-5.447
				l25.18-67.148c0.353-0.94,0.529-1.939,0.529-2.946V411.28H0V428.067z"/>
			<rect x="0" y="92.33" width="67.148" height="302.164"/>
		</g>
	</g>
</g>
<g>
</g>
<g>
</g>
<g>
</g>
<g>
</g>
<g>
</g>
<g>
</g>
<g>
</g>
<g>
</g>
<g>
</g>
<g>
</g>
<g>
</g>
<g>
</g>
<g>
</g>
<g>
</g>
<g>
</g>
</svg>
